<mxfile host="app.diagrams.net" modified="2021-09-03T01:05:24.873Z" agent="5.0 (Windows NT 10.0; Win64; x64) AppleWebKit/537.36 (KHTML, like Gecko) Chrome/92.0.4515.159 Safari/537.36" etag="C14MikIs_TLYGmkykh-n" version="14.9.3" type="github">
  <diagram id="ycX0qka1kOTAtA3TOuYD" name="Page-1">
    <mxGraphModel dx="2104" dy="1129" grid="0" gridSize="10" guides="1" tooltips="1" connect="1" arrows="1" fold="1" page="0" pageScale="1" pageWidth="827" pageHeight="1169" math="0" shadow="0">
      <root>
        <mxCell id="0" />
        <mxCell id="1" parent="0" />
        <mxCell id="b8hVWJDWPAR7-bk952km-7" style="edgeStyle=orthogonalEdgeStyle;rounded=0;orthogonalLoop=1;jettySize=auto;html=1;" edge="1" parent="1" source="b8hVWJDWPAR7-bk952km-1" target="b8hVWJDWPAR7-bk952km-2">
          <mxGeometry relative="1" as="geometry" />
        </mxCell>
        <mxCell id="b8hVWJDWPAR7-bk952km-1" value="Event&amp;nbsp; initiated" style="rounded=1;whiteSpace=wrap;html=1;" vertex="1" parent="1">
          <mxGeometry x="30" y="150" width="60" height="30" as="geometry" />
        </mxCell>
        <mxCell id="b8hVWJDWPAR7-bk952km-6" style="edgeStyle=orthogonalEdgeStyle;rounded=0;orthogonalLoop=1;jettySize=auto;html=1;entryX=0;entryY=0.5;entryDx=0;entryDy=0;" edge="1" parent="1" source="b8hVWJDWPAR7-bk952km-2" target="b8hVWJDWPAR7-bk952km-4">
          <mxGeometry relative="1" as="geometry" />
        </mxCell>
        <mxCell id="b8hVWJDWPAR7-bk952km-2" value="Issue logged in the ticketing system" style="rounded=1;whiteSpace=wrap;html=1;" vertex="1" parent="1">
          <mxGeometry x="130" y="135" width="110" height="60" as="geometry" />
        </mxCell>
        <mxCell id="b8hVWJDWPAR7-bk952km-13" style="edgeStyle=orthogonalEdgeStyle;rounded=0;orthogonalLoop=1;jettySize=auto;html=1;entryX=0;entryY=0.5;entryDx=0;entryDy=0;" edge="1" parent="1" source="b8hVWJDWPAR7-bk952km-4" target="b8hVWJDWPAR7-bk952km-12">
          <mxGeometry relative="1" as="geometry" />
        </mxCell>
        <mxCell id="b8hVWJDWPAR7-bk952km-4" value="Audible Emergency team&amp;nbsp;is notified" style="rounded=1;whiteSpace=wrap;html=1;" vertex="1" parent="1">
          <mxGeometry x="280" y="135" width="120" height="60" as="geometry" />
        </mxCell>
        <mxCell id="b8hVWJDWPAR7-bk952km-17" style="edgeStyle=orthogonalEdgeStyle;rounded=0;orthogonalLoop=1;jettySize=auto;html=1;entryX=0.5;entryY=1;entryDx=0;entryDy=0;" edge="1" parent="1" source="b8hVWJDWPAR7-bk952km-12" target="b8hVWJDWPAR7-bk952km-14">
          <mxGeometry relative="1" as="geometry" />
        </mxCell>
        <mxCell id="b8hVWJDWPAR7-bk952km-21" value="" style="edgeStyle=orthogonalEdgeStyle;rounded=0;orthogonalLoop=1;jettySize=auto;html=1;" edge="1" parent="1" source="b8hVWJDWPAR7-bk952km-12" target="b8hVWJDWPAR7-bk952km-20">
          <mxGeometry relative="1" as="geometry" />
        </mxCell>
        <mxCell id="b8hVWJDWPAR7-bk952km-12" value="Is Tier 1 or &lt;br&gt;critical app" style="rhombus;whiteSpace=wrap;html=1;shadow=1;fillColor=#99FFFF;" vertex="1" parent="1">
          <mxGeometry x="430" y="118.75" width="100" height="92.5" as="geometry" />
        </mxCell>
        <mxCell id="b8hVWJDWPAR7-bk952km-24" style="edgeStyle=orthogonalEdgeStyle;rounded=0;orthogonalLoop=1;jettySize=auto;html=1;entryX=0;entryY=0.5;entryDx=0;entryDy=0;" edge="1" parent="1" source="b8hVWJDWPAR7-bk952km-14" target="b8hVWJDWPAR7-bk952km-22">
          <mxGeometry relative="1" as="geometry" />
        </mxCell>
        <mxCell id="b8hVWJDWPAR7-bk952km-14" value="Initial damage assessment is carried out by the emergency team&amp;nbsp;" style="rounded=0;whiteSpace=wrap;html=1;" vertex="1" parent="1">
          <mxGeometry x="410" y="20" width="140" height="60" as="geometry" />
        </mxCell>
        <mxCell id="b8hVWJDWPAR7-bk952km-18" value="Yes" style="text;html=1;align=center;verticalAlign=middle;resizable=0;points=[];autosize=1;strokeColor=none;" vertex="1" parent="1">
          <mxGeometry x="480" y="98.75" width="30" height="20" as="geometry" />
        </mxCell>
        <mxCell id="b8hVWJDWPAR7-bk952km-19" value="No" style="text;html=1;align=center;verticalAlign=middle;resizable=0;points=[];autosize=1;strokeColor=none;" vertex="1" parent="1">
          <mxGeometry x="440" y="210" width="30" height="20" as="geometry" />
        </mxCell>
        <mxCell id="b8hVWJDWPAR7-bk952km-40" style="edgeStyle=orthogonalEdgeStyle;rounded=0;orthogonalLoop=1;jettySize=auto;html=1;" edge="1" parent="1" source="b8hVWJDWPAR7-bk952km-20" target="b8hVWJDWPAR7-bk952km-36">
          <mxGeometry relative="1" as="geometry" />
        </mxCell>
        <mxCell id="b8hVWJDWPAR7-bk952km-20" value="Emergency team looks after response until situation under control" style="rounded=0;whiteSpace=wrap;html=1;" vertex="1" parent="1">
          <mxGeometry x="420" y="240" width="120" height="60" as="geometry" />
        </mxCell>
        <mxCell id="b8hVWJDWPAR7-bk952km-26" style="edgeStyle=orthogonalEdgeStyle;rounded=0;orthogonalLoop=1;jettySize=auto;html=1;entryX=0;entryY=0.5;entryDx=0;entryDy=0;" edge="1" parent="1" source="b8hVWJDWPAR7-bk952km-22" target="b8hVWJDWPAR7-bk952km-25">
          <mxGeometry relative="1" as="geometry" />
        </mxCell>
        <mxCell id="b8hVWJDWPAR7-bk952km-29" style="edgeStyle=orthogonalEdgeStyle;rounded=0;orthogonalLoop=1;jettySize=auto;html=1;entryX=1;entryY=0.75;entryDx=0;entryDy=0;" edge="1" parent="1" source="b8hVWJDWPAR7-bk952km-22" target="b8hVWJDWPAR7-bk952km-20">
          <mxGeometry relative="1" as="geometry">
            <Array as="points">
              <mxPoint x="705" y="285" />
            </Array>
          </mxGeometry>
        </mxCell>
        <mxCell id="b8hVWJDWPAR7-bk952km-22" value="Is situation critical &lt;br&gt;enough&amp;nbsp;to inform Audible staff to &lt;br&gt;initiate Call Tree Process" style="rhombus;whiteSpace=wrap;html=1;shadow=1;fillColor=#99FFFF;" vertex="1" parent="1">
          <mxGeometry x="600" y="-28.12" width="210" height="158.12" as="geometry" />
        </mxCell>
        <mxCell id="b8hVWJDWPAR7-bk952km-31" style="edgeStyle=orthogonalEdgeStyle;rounded=0;orthogonalLoop=1;jettySize=auto;html=1;" edge="1" parent="1" source="b8hVWJDWPAR7-bk952km-25" target="b8hVWJDWPAR7-bk952km-28">
          <mxGeometry relative="1" as="geometry" />
        </mxCell>
        <mxCell id="b8hVWJDWPAR7-bk952km-25" value="Audible call Tree process is initiated" style="rounded=0;whiteSpace=wrap;html=1;" vertex="1" parent="1">
          <mxGeometry x="860" y="20.939999999999998" width="120" height="60" as="geometry" />
        </mxCell>
        <mxCell id="b8hVWJDWPAR7-bk952km-27" value="Yes" style="text;html=1;align=center;verticalAlign=middle;resizable=0;points=[];autosize=1;strokeColor=none;" vertex="1" parent="1">
          <mxGeometry x="810" y="30" width="30" height="20" as="geometry" />
        </mxCell>
        <mxCell id="b8hVWJDWPAR7-bk952km-33" style="edgeStyle=orthogonalEdgeStyle;rounded=0;orthogonalLoop=1;jettySize=auto;html=1;" edge="1" parent="1" source="b8hVWJDWPAR7-bk952km-28" target="b8hVWJDWPAR7-bk952km-32">
          <mxGeometry relative="1" as="geometry" />
        </mxCell>
        <mxCell id="b8hVWJDWPAR7-bk952km-28" value="Audible DR team continue with counter task" style="rounded=0;whiteSpace=wrap;html=1;" vertex="1" parent="1">
          <mxGeometry x="860" y="160" width="120" height="60" as="geometry" />
        </mxCell>
        <mxCell id="b8hVWJDWPAR7-bk952km-30" value="No" style="text;html=1;align=center;verticalAlign=middle;resizable=0;points=[];autosize=1;strokeColor=none;" vertex="1" parent="1">
          <mxGeometry x="580" y="260" width="30" height="20" as="geometry" />
        </mxCell>
        <mxCell id="b8hVWJDWPAR7-bk952km-34" style="edgeStyle=orthogonalEdgeStyle;rounded=0;orthogonalLoop=1;jettySize=auto;html=1;entryX=0.5;entryY=1;entryDx=0;entryDy=0;" edge="1" parent="1" source="b8hVWJDWPAR7-bk952km-32" target="b8hVWJDWPAR7-bk952km-20">
          <mxGeometry relative="1" as="geometry" />
        </mxCell>
        <mxCell id="b8hVWJDWPAR7-bk952km-32" value="Situation &lt;br&gt;Resolved?" style="rounded=0;whiteSpace=wrap;html=1;" vertex="1" parent="1">
          <mxGeometry x="860" y="290" width="120" height="60" as="geometry" />
        </mxCell>
        <mxCell id="b8hVWJDWPAR7-bk952km-35" value="Yes" style="text;html=1;align=center;verticalAlign=middle;resizable=0;points=[];autosize=1;strokeColor=none;" vertex="1" parent="1">
          <mxGeometry x="780" y="290" width="30" height="20" as="geometry" />
        </mxCell>
        <mxCell id="b8hVWJDWPAR7-bk952km-41" style="edgeStyle=orthogonalEdgeStyle;rounded=0;orthogonalLoop=1;jettySize=auto;html=1;" edge="1" parent="1" source="b8hVWJDWPAR7-bk952km-36" target="b8hVWJDWPAR7-bk952km-39">
          <mxGeometry relative="1" as="geometry" />
        </mxCell>
        <mxCell id="b8hVWJDWPAR7-bk952km-36" value="Situation report made by call tree after action" style="rounded=1;whiteSpace=wrap;html=1;" vertex="1" parent="1">
          <mxGeometry x="240" y="240" width="120" height="60" as="geometry" />
        </mxCell>
        <mxCell id="b8hVWJDWPAR7-bk952km-38" style="edgeStyle=orthogonalEdgeStyle;rounded=0;orthogonalLoop=1;jettySize=auto;html=1;entryX=0;entryY=0.5;entryDx=0;entryDy=0;" edge="1" parent="1" source="b8hVWJDWPAR7-bk952km-37" target="b8hVWJDWPAR7-bk952km-1">
          <mxGeometry relative="1" as="geometry" />
        </mxCell>
        <mxCell id="b8hVWJDWPAR7-bk952km-37" value="Start" style="rounded=1;whiteSpace=wrap;html=1;fillColor=#FFF2CC;" vertex="1" parent="1">
          <mxGeometry x="-70" y="150" width="60" height="30" as="geometry" />
        </mxCell>
        <mxCell id="b8hVWJDWPAR7-bk952km-39" value="End" style="rounded=1;whiteSpace=wrap;html=1;fillColor=#FFF2CC;" vertex="1" parent="1">
          <mxGeometry x="120" y="255" width="60" height="30" as="geometry" />
        </mxCell>
      </root>
    </mxGraphModel>
  </diagram>
</mxfile>
